<svg width="60" height="55" viewBox="0 0 60 55" fill="none" xmlns="http://www.w3.org/2000/svg">
<g clip-path="url(#clip0_9410_482)">
<path d="M11.8769 0.00961057C12.0342 0.00946485 12.1916 0.00928549 12.349 0.00907551C12.7803 0.00859976 13.2116 0.00860898 13.6428 0.00870097C14.1084 0.0087169 14.574 0.0082865 15.0397 0.00791711C15.9514 0.00727027 16.8632 0.00705454 17.7749 0.00701208C18.5162 0.00697622 19.2574 0.00681558 19.9987 0.00656779C20.2123 0.00649783 20.4259 0.00642848 20.6395 0.00635931C20.6926 0.00634209 20.7457 0.00632486 20.8004 0.00630711C22.2936 0.00582767 23.7869 0.00551988 25.2801 0.00555449C25.3363 0.0055557 25.3926 0.00555692 25.4506 0.00555817C25.7357 0.00556465 26.0209 0.00557237 26.306 0.00558036C26.3909 0.00558269 26.3909 0.00558269 26.4776 0.00558507C26.5921 0.00558822 26.7066 0.00559148 26.8211 0.00559484C28.6024 0.00564259 30.3837 0.00505765 32.165 0.00399147C34.1678 0.00279324 36.1705 0.00212368 38.1732 0.00219605C38.3869 0.00220187 38.6007 0.00220567 38.8144 0.00220808C38.8933 0.00220944 38.8933 0.00220944 38.9739 0.00221083C39.8191 0.00221323 40.6644 0.00171643 41.5096 0.0010443C42.3597 0.000382313 43.2098 0.000320895 44.0599 0.00081901C44.5201 0.00107323 44.9802 0.00107886 45.4404 0.000401792C45.8622 -0.000212416 46.284 -9.83616e-05 46.7057 0.000579811C46.8578 0.000699172 47.0098 0.000558935 47.1619 0.000123093C48.3925 -0.00316895 49.5546 0.118705 50.7579 0.399348C50.9081 0.434205 51.0587 0.467587 51.2092 0.500898C52.0377 0.688824 52.829 0.95356 53.5626 1.40829C53.6266 1.44785 53.6266 1.44785 53.6918 1.4882C54.127 1.76058 54.5485 2.05381 54.9642 2.35815C55.0421 2.41501 55.12 2.47187 55.2003 2.53046C55.629 2.84988 55.629 2.84988 55.7783 2.98164C55.7783 3.03308 55.7783 3.08452 55.7783 3.13752C55.8421 3.16449 55.8421 3.16449 55.9072 3.19201C56.2258 3.38533 56.4237 3.72446 56.6473 4.02588C56.7396 4.14965 56.8333 4.272 56.9274 4.39426C57.7662 5.49669 58.279 6.63023 58.5856 8.00915C58.6356 8.23296 58.6879 8.45587 58.7424 8.67849C58.9473 9.5414 59.003 10.3522 58.9987 11.239C58.9991 11.3823 58.9996 11.5257 59.0002 11.6691C59.0016 12.0589 59.0012 12.4487 59.0004 12.8386C58.9999 13.2606 59.0011 13.6827 59.002 14.1047C59.0036 14.93 59.0036 15.7553 59.003 16.5805C59.0025 17.2518 59.0026 17.9231 59.0031 18.5944C59.0032 18.6901 59.0032 18.7859 59.0033 18.8846C59.0034 19.0793 59.0036 19.2739 59.0037 19.4685C59.0049 21.2911 59.0043 23.1136 59.0031 24.9361C59.002 26.6006 59.003 28.265 59.0052 29.9294C59.0074 31.6417 59.0082 33.354 59.0075 35.0663C59.0074 35.2603 59.0073 35.4543 59.0072 35.6483C59.0072 35.7437 59.0072 35.8391 59.0071 35.9374C59.007 36.6071 59.0077 37.2767 59.0088 37.9464C59.0101 38.7636 59.0101 39.5809 59.0084 40.3982C59.0076 40.8145 59.0073 41.2308 59.0087 41.6471C59.0184 44.7969 59.0184 44.7969 58.6394 46.0697C58.5675 46.3155 58.5085 46.5646 58.4483 46.8138C58.1569 47.9935 57.6853 49.1489 56.8884 50.0557C56.8395 50.0557 56.7907 50.0557 56.7404 50.0557C56.7206 50.1003 56.7009 50.1449 56.6805 50.1909C56.2344 51.0842 55.4491 51.6924 54.6681 52.2379C54.5887 52.2943 54.5092 52.3507 54.4273 52.4087C53.4456 53.0963 52.4371 53.6513 51.263 53.8661C50.9767 53.9201 50.6936 53.9812 50.4104 54.0512C49.3846 54.3022 48.4223 54.3987 47.3714 54.3933C47.2114 54.3939 47.0513 54.3947 46.8913 54.3957C46.457 54.3977 46.0228 54.3974 45.5885 54.3966C45.118 54.3962 44.6474 54.3981 44.1768 54.3996C43.2569 54.4022 42.3369 54.4027 41.4169 54.4024C40.6681 54.4021 39.9192 54.4026 39.1703 54.4035C39.0623 54.4036 38.9542 54.4038 38.8462 54.4039C38.6833 54.4041 38.5204 54.4043 38.3576 54.4045C36.8451 54.4063 35.3327 54.4072 33.8203 54.4066C33.7634 54.4065 33.7065 54.4065 33.6479 54.4065C33.3596 54.4064 33.0713 54.4062 32.7831 54.4061C32.7258 54.406 32.6686 54.406 32.6096 54.406C32.4939 54.4059 32.3781 54.4059 32.2624 54.4058C30.464 54.4049 28.6657 54.4067 26.8673 54.4107C24.8407 54.4151 22.8141 54.4175 20.7875 54.4168C20.5706 54.4167 20.3537 54.4166 20.1368 54.4166C20.0835 54.4166 20.0301 54.4166 19.9751 54.4165C19.1752 54.4164 18.3753 54.4178 17.5754 54.4201C16.6633 54.4227 15.7513 54.423 14.8393 54.4206C14.3753 54.4195 13.9114 54.4192 13.4474 54.4218C11.0695 54.4342 8.86387 54.2544 6.58336 53.5166C6.5353 53.5011 6.48725 53.4856 6.43774 53.4696C5.67714 53.2155 5.04222 52.7448 4.39976 52.2588C4.26105 52.1544 4.12126 52.0517 3.98141 51.949C3.44254 51.5489 2.9745 51.1533 2.56629 50.6013C2.51668 50.5373 2.46707 50.4733 2.41596 50.4073C2.04823 49.9256 2.04823 49.9256 2.04823 49.744C1.99938 49.744 1.95054 49.744 1.90021 49.744C1.7737 49.5582 1.65788 49.3731 1.54405 49.1789C1.49675 49.1015 1.49675 49.1015 1.4485 49.0224C0.993413 48.2539 0.735176 47.4257 0.521807 46.5534C0.500628 46.4695 0.479449 46.3855 0.457628 46.299C0.394064 46.0448 0.331691 45.7906 0.27203 45.5354C0.254185 45.4696 0.23634 45.4037 0.217955 45.336C0.0284549 44.5822 0.0183692 43.8678 0.0208151 43.0947C0.0204527 42.9519 0.019994 42.8091 0.0194487 42.6664C0.0182405 42.2764 0.0184057 41.8864 0.0188106 41.4964C0.0190089 41.0749 0.0179316 40.6534 0.0170275 40.2319C0.0154719 39.4068 0.0151326 38.5818 0.0152647 37.7568C0.0153616 37.0857 0.0150797 36.4146 0.0145307 35.7436C0.0143753 35.55 0.0142205 35.3564 0.0140654 35.1628C0.0139882 35.0664 0.0139101 34.97 0.0138305 34.8708C0.0124326 33.0494 0.0125089 31.228 0.0130141 29.4066C0.0134264 27.7429 0.0118869 26.0791 0.00943539 24.4154C0.00693447 22.7048 0.00581666 20.9941 0.00615823 19.2835C0.00632397 18.3241 0.00594198 17.3646 0.00409391 16.4052C0.00253343 15.5881 0.00227772 14.771 0.00367156 13.954C0.0043461 13.5377 0.0044445 13.1214 0.00290591 12.7051C-0.00792593 9.56877 -0.00792586 9.56877 0.371187 8.36613C0.446623 8.11495 0.503627 7.85939 0.562257 7.60339C0.8939 6.17643 1.55847 5.12107 2.40613 3.97748C2.50341 3.846 2.59852 3.71265 2.68944 3.57622C2.72207 3.53433 2.7547 3.49243 2.78831 3.44927C2.83716 3.44927 2.886 3.44927 2.93633 3.44927C2.98517 3.34639 3.03402 3.24351 3.08434 3.13752C3.13319 3.13752 3.18204 3.13752 3.23236 3.13752C3.25678 3.06036 3.28121 2.9832 3.30637 2.90371C3.48503 2.75484 3.48503 2.75484 3.72267 2.58709C3.7653 2.55687 3.80794 2.52665 3.85187 2.49551C3.94328 2.43082 4.03485 2.3664 4.12657 2.30221C4.26796 2.20264 4.40809 2.10132 4.54803 1.99951C5.77243 1.1141 6.98443 0.711671 8.42682 0.356136C8.52122 0.332175 8.61562 0.308214 8.71288 0.283526C8.80575 0.26057 8.89862 0.237614 8.99431 0.213961C9.07647 0.193498 9.15863 0.173034 9.24328 0.15195C10.1144 -0.0161183 10.9948 0.00883633 11.8769 0.00961057ZM6.78476 7.26819C6.74936 7.30787 6.71397 7.34756 6.67751 7.38845C5.9734 8.20464 5.58826 9.25288 5.5909 10.3516C5.59075 10.4106 5.5906 10.4696 5.59044 10.5303C5.59002 10.7287 5.59013 10.927 5.59023 11.1253C5.59004 11.2687 5.58982 11.4121 5.58957 11.5554C5.58897 11.95 5.58884 12.3445 5.58878 12.739C5.58864 13.1643 5.58809 13.5896 5.58759 14.0149C5.58658 14.9452 5.58614 15.8754 5.58581 16.8057C5.58561 17.3865 5.58529 17.9674 5.58496 18.5482C5.58406 20.1564 5.58329 21.7645 5.58304 23.3726C5.58303 23.4766 5.58301 23.5806 5.58299 23.6846C5.58298 23.7888 5.58296 23.893 5.58295 23.9973C5.58291 24.2064 5.58288 24.4155 5.58285 24.6246C5.58284 24.6764 5.58283 24.7283 5.58282 24.7817C5.58255 26.4622 5.58138 28.1428 5.57965 29.8234C5.57783 31.6007 5.57682 33.3781 5.57673 35.1554C5.57666 36.124 5.57623 37.0927 5.57489 38.0613C5.57375 38.8862 5.57337 39.7111 5.57398 40.5359C5.57427 40.9567 5.5742 41.3775 5.57316 41.7983C5.57222 42.1838 5.57231 42.5693 5.57321 42.9548C5.57335 43.094 5.57313 43.2331 5.57248 43.3723C5.56644 44.7604 5.79638 46.0244 6.71075 47.0941C7.72461 48.1572 9.02825 48.8138 10.4634 48.8192C10.5548 48.819 10.5548 48.819 10.648 48.8187C10.7144 48.8189 10.7808 48.819 10.8492 48.8191C11.0716 48.8195 11.294 48.8193 11.5163 48.8191C11.6774 48.8193 11.8386 48.8195 11.9997 48.8197C12.4423 48.8201 12.8849 48.8201 13.3275 48.82C13.8049 48.82 14.2823 48.8205 14.7598 48.8208C15.695 48.8215 16.6303 48.8217 17.5655 48.8217C18.3257 48.8218 19.0858 48.8219 19.8459 48.8222C20.0648 48.8222 20.2837 48.8223 20.5025 48.8224C20.5842 48.8224 20.5842 48.8224 20.6674 48.8224C22.1977 48.8229 23.728 48.8232 25.2583 48.8232C25.3449 48.8232 25.3449 48.8232 25.4331 48.8232C25.7255 48.8232 26.0179 48.8232 26.3103 48.8232C26.3974 48.8232 26.3974 48.8232 26.4862 48.8232C26.6036 48.8232 26.7211 48.8232 26.8385 48.8232C28.6654 48.8231 30.4924 48.8237 32.3194 48.8248C34.3723 48.826 36.4252 48.8266 38.4781 48.8265C38.6971 48.8265 38.916 48.8265 39.1349 48.8265C39.2158 48.8265 39.2158 48.8265 39.2983 48.8265C40.1655 48.8265 41.0326 48.827 41.8998 48.8277C42.7714 48.8284 43.643 48.8284 44.5146 48.8279C44.9867 48.8277 45.4588 48.8277 45.9309 48.8283C46.3631 48.8289 46.7954 48.8288 47.2277 48.8282C47.3839 48.828 47.5402 48.8282 47.6965 48.8286C49.261 48.8327 50.7772 48.6266 51.9758 47.4491C52.8443 46.4668 53.423 45.4445 53.4197 44.0752C53.4199 44.0157 53.42 43.9562 53.4202 43.8949C53.4206 43.6953 53.4205 43.4957 53.4204 43.2961C53.4206 43.1517 53.4208 43.0072 53.421 42.8628C53.4216 42.4656 53.4218 42.0684 53.4218 41.6713C53.422 41.243 53.4225 40.8147 53.423 40.3865C53.424 39.4499 53.4245 38.5134 53.4248 37.5769C53.425 36.9921 53.4253 36.4074 53.4257 35.8226C53.4266 34.2036 53.4273 32.5847 53.4276 30.9657C53.4276 30.861 53.4276 30.7564 53.4276 30.6517C53.4276 30.5468 53.4276 30.4419 53.4277 30.337C53.4277 30.1265 53.4277 29.9161 53.4278 29.7056C53.4278 29.6534 53.4278 29.6012 53.4278 29.5475C53.4281 27.8555 53.4292 26.1636 53.431 24.4717C53.4328 22.6823 53.4338 20.8928 53.4339 19.1034C53.4339 18.1282 53.4344 17.153 53.4357 16.1778C53.4369 15.3474 53.4372 14.5171 53.4366 13.6867C53.4363 13.2631 53.4364 12.8395 53.4374 12.4159C53.4384 12.0279 53.4383 11.6399 53.4374 11.2518C53.4373 11.1117 53.4375 10.9716 53.4381 10.8314C53.4422 9.88527 53.3803 9.05359 52.9336 8.21318C52.8909 8.1314 52.8483 8.04962 52.8043 7.96536C52.6089 7.6316 52.3985 7.35113 52.1102 7.10257C51.9856 6.99446 51.8662 6.89004 51.7552 6.76647C50.8463 5.85486 49.5173 5.54056 48.3034 5.54333C48.2377 5.54317 48.172 5.54301 48.1043 5.54284C47.8838 5.5424 47.6634 5.54252 47.4429 5.54263C47.2833 5.54243 47.1238 5.54219 46.9642 5.54192C46.5255 5.5413 46.0868 5.54116 45.6481 5.5411C45.175 5.54096 44.702 5.54037 44.2289 5.53984C43.1403 5.53873 42.0518 5.53827 40.9632 5.53792C40.425 5.53774 39.8868 5.53745 39.3486 5.53716C37.5055 5.53616 35.6624 5.53533 33.8193 5.53506C33.7036 5.53504 33.588 5.53502 33.4723 5.53501C33.3564 5.53499 33.2404 5.53497 33.1245 5.53495C32.8919 5.53492 32.6593 5.53488 32.4267 5.53485C32.3402 5.53484 32.3402 5.53484 32.2519 5.53482C30.3828 5.53454 28.5136 5.5333 26.6444 5.53148C24.6672 5.52956 22.6899 5.5285 20.7127 5.5284C20.4955 5.52839 20.2782 5.52837 20.061 5.52835C20.0075 5.52835 19.9541 5.52835 19.899 5.52834C19.0396 5.52825 18.1803 5.52739 17.321 5.52626C16.4566 5.52514 15.5922 5.52491 14.7278 5.52551C14.2599 5.52582 13.7919 5.52575 13.324 5.52465C12.8951 5.52366 12.4661 5.52375 12.0372 5.5247C11.8826 5.52485 11.7279 5.52461 11.5733 5.52393C9.77726 5.51652 8.05657 5.7758 6.78476 7.26819Z" fill="white"/>
<path d="M18.0105 15.0027C18.0924 15.0018 18.1743 15.0009 18.2586 15C19.2099 15.0036 19.9336 15.2879 20.6634 15.9378C21.2055 16.5257 21.229 17.4314 21.3349 18.2044C21.3524 18.5137 21.3524 18.5137 21.483 18.7722C21.6791 18.7815 21.8733 18.7858 22.0695 18.7869C22.131 18.7876 22.1925 18.7882 22.2558 18.7889C22.3898 18.7902 22.5238 18.7914 22.6578 18.7925C22.8698 18.7941 23.0819 18.7962 23.2939 18.7984C23.7445 18.8031 24.1951 18.8071 24.6456 18.8111C25.1666 18.8157 25.6876 18.8206 26.2086 18.8261C26.4175 18.8281 26.6264 18.8298 26.8352 18.8314C26.9636 18.8327 27.092 18.834 27.2204 18.8353C27.2785 18.8356 27.3365 18.836 27.3963 18.8363C27.6789 18.8397 27.9399 18.8615 28.2152 18.928C28.3747 18.9351 28.5344 18.9382 28.694 18.9384C28.8304 18.9385 28.8304 18.9385 28.9696 18.9387C29.0639 18.9384 29.1583 18.9381 29.2555 18.9377C29.3975 18.9382 29.3975 18.9382 29.5423 18.9387C29.6786 18.9385 29.6786 18.9385 29.8176 18.9384C29.9005 18.9383 29.9834 18.9382 30.0688 18.9381C30.2762 18.9364 30.2762 18.9364 30.4305 18.889C30.6876 18.8232 30.9507 18.84 31.2138 18.8412C31.2773 18.8412 31.3409 18.8412 31.4063 18.8412C31.6161 18.8413 31.8258 18.8419 32.0356 18.8425C32.1811 18.8426 32.3266 18.8427 32.4722 18.8428C32.8551 18.8431 33.2379 18.8439 33.6208 18.8447C34.0115 18.8455 34.4023 18.8459 34.7931 18.8463C35.5597 18.8471 36.3262 18.8484 37.0928 18.8501C37.1071 18.708 37.1071 18.708 37.1216 18.5631C37.1345 18.4368 37.1475 18.3104 37.1604 18.1841C37.1697 18.0909 37.1697 18.0909 37.1792 17.9957C37.3511 16.3317 37.3511 16.3317 37.9719 15.7762C38.0511 15.7186 38.1302 15.6611 38.2118 15.6018C38.3288 15.5145 38.3288 15.5145 38.4482 15.4255C39.0806 15.0236 39.7365 14.9951 40.4589 15.0027C40.5447 15.0018 40.6304 15.0009 40.7187 15C41.7015 15.0035 42.3527 15.2741 43.091 15.9524C43.6783 16.5762 43.6992 17.4443 43.7716 18.2775C43.8612 18.7149 44.1139 18.9416 44.4446 19.2007C45.3428 19.9094 45.9689 20.7213 46.4143 21.8111C46.4414 21.8752 46.4685 21.9392 46.4964 22.0053C46.9935 23.298 47.0861 24.77 47.2674 26.1411C47.3362 26.6615 47.4069 27.1812 47.4917 27.699C47.6864 28.8899 47.8636 30.0841 48.0009 31.2839C48.133 32.4156 48.276 33.5471 48.4997 34.6632C48.7851 36.0995 48.692 37.0733 47.9679 38.3303C47.2684 39.3535 46.0548 40.2193 44.8607 40.4342C43.6688 40.557 42.6642 40.3213 41.6796 39.577C40.6252 38.6164 40.051 37.0388 39.4281 35.7617C39.2561 35.4105 39.0808 35.0612 38.9053 34.7119C38.2025 33.3075 38.2025 33.3075 38.2025 33.1096C38.1501 33.1659 38.0976 33.2221 38.0436 33.2801C37.1913 34.1758 36.2728 34.8332 35.0325 34.8496C33.787 34.84 32.8468 34.5573 31.9188 33.621C31.764 33.4553 31.6368 33.3035 31.5357 33.0961C31.3388 32.7119 31.3388 32.7119 30.9934 32.4958C30.7697 32.4674 30.5545 32.4608 30.3291 32.4628C30.2476 32.4616 30.166 32.4604 30.082 32.4591C29.9099 32.4576 29.7377 32.4579 29.5655 32.4599C29.3031 32.4619 29.0417 32.4552 28.7794 32.4477C27.9036 32.3981 27.9036 32.3981 27.1445 32.7689C26.969 32.9914 26.8562 33.2401 26.7356 33.4992C25.9797 34.366 24.9103 34.8511 23.8032 34.9097C22.7177 34.8752 21.7144 34.4444 20.907 33.687C20.8172 33.5771 20.8172 33.5771 20.8172 33.4213C20.7683 33.4213 20.7195 33.4213 20.6692 33.4213C20.6448 33.3699 20.6204 33.3184 20.5952 33.2655C20.5464 33.2655 20.4976 33.2655 20.4473 33.2655C20.3973 33.372 20.3973 33.372 20.3464 33.4806C19.9571 34.3079 19.5528 35.1263 19.1441 35.943C19.0449 36.142 18.9466 36.3413 18.8486 36.5409C17.4255 39.4318 17.4255 39.4318 15.9345 40.2004C15.8791 40.2302 15.8238 40.2601 15.7668 40.2908C14.9092 40.6731 13.8032 40.4713 12.9752 40.1225C12.8883 40.0887 12.8883 40.0887 12.7995 40.0543C12.3031 39.8452 11.8419 39.5335 11.4217 39.1874C11.4217 39.136 11.4217 39.0846 11.4217 39.0316C11.3574 39.0037 11.3574 39.0037 11.2919 38.9753C10.6349 38.5818 10.275 37.6626 10.0669 36.9326C9.92227 36.1852 10.0382 35.4363 10.1686 34.6973C10.2032 34.4898 10.2376 34.2824 10.2712 34.0748C10.2849 33.9901 10.2849 33.9901 10.2989 33.9037C10.427 33.101 10.5299 32.2942 10.6356 31.4879C10.6577 31.3205 10.6797 31.1531 10.7018 30.9856C10.7805 30.388 10.8588 29.7904 10.9372 29.1928C11.3918 25.7286 11.3918 25.7286 11.6575 24.1682C11.6742 24.0687 11.6909 23.9692 11.7081 23.8667C11.8584 23.0145 12.06 22.1805 12.4389 21.4069C12.4644 21.3543 12.4898 21.3018 12.5161 21.2476C12.9691 20.3416 13.6726 19.5345 14.4548 18.928C14.5037 18.928 14.5525 18.928 14.6028 18.928C14.6088 18.8829 14.6147 18.8378 14.6208 18.7914C14.6783 18.3575 14.7376 17.9239 14.7979 17.4905C14.8194 17.331 14.8385 17.1712 14.8568 17.0113C14.9604 16.2117 15.4023 15.8799 15.9885 15.4057C16.6298 15.0345 17.2918 14.9948 18.0105 15.0027ZM39.733 20.7738C39.5554 21.0301 39.5294 21.2638 39.5342 21.5773C39.6118 21.9291 39.7951 22.1237 40.052 22.3565C40.3488 22.5293 40.604 22.549 40.9398 22.5124C41.2883 22.37 41.5703 22.1586 41.7536 21.8111C41.8184 21.496 41.8213 21.2316 41.664 20.9488C41.437 20.6581 41.2205 20.439 40.8548 20.3851C40.3932 20.3825 40.1104 20.4837 39.733 20.7738ZM17.1921 21.4994C17.1774 21.6945 17.1715 21.8791 17.1736 22.0741C17.1731 22.1265 17.1725 22.1789 17.1719 22.2329C17.1733 22.6213 17.2106 22.8432 17.471 23.1181C17.7646 23.3795 17.7646 23.3795 18.1261 23.4279C18.5468 23.1209 18.5468 23.1209 18.784 22.6643C18.7946 22.4881 18.7919 22.3185 18.7827 22.1422C18.7819 22.0825 18.7812 22.0227 18.7804 21.9611C18.7801 21.6155 18.7801 21.6155 18.5977 21.3436C18.3852 21.3281 18.1813 21.3219 17.9689 21.3241C17.9108 21.3235 17.8528 21.3229 17.7929 21.3222C17.4573 21.3089 17.4573 21.3089 17.1921 21.4994ZM36.9634 23.7348C36.7749 23.9929 36.7229 24.2091 36.7229 24.5383C36.88 25.007 37.1563 25.2063 37.5367 25.4734C37.8745 25.5327 38.1842 25.5107 38.4892 25.3419C38.8107 25.0913 38.9093 24.9089 39.0071 24.5042C39.018 24.1757 38.9665 24.0311 38.7944 23.7591C38.4233 23.4064 38.2071 23.3501 37.7193 23.3582C37.3647 23.3801 37.2171 23.4735 36.9634 23.7348ZM42.5442 23.7835C42.3782 24.0066 42.2645 24.1678 42.2714 24.4604C42.3951 24.8656 42.5596 25.1166 42.8633 25.3954C43.1602 25.5518 43.503 25.5213 43.825 25.4734C44.1539 25.3127 44.3625 25.1134 44.5325 24.7769C44.5844 24.3943 44.5589 24.1141 44.3706 23.7786C44.0976 23.5062 43.8238 23.3853 43.4505 23.3451C43.0555 23.3894 42.8136 23.4719 42.5442 23.7835ZM15.1207 23.6812C15.1079 23.9049 15.1035 24.1201 15.1068 24.3435C15.1068 24.4047 15.1069 24.4659 15.1069 24.5289C15.102 24.8557 15.102 24.8557 15.1947 25.1617C16.0011 25.2618 16.0011 25.2618 16.7491 25.0192C16.9097 24.8358 17.0272 24.6911 17.1181 24.4604C17.0933 24.0642 16.9227 23.884 16.6743 23.6033C16.4313 23.4753 16.1641 23.511 15.8975 23.5107C15.8394 23.5098 15.7813 23.5088 15.7215 23.5078C15.3859 23.4915 15.3859 23.4915 15.1207 23.6812ZM19.1156 23.9149C19.0714 23.9535 19.0271 23.9921 18.9815 24.0318C18.8518 24.2043 18.8742 24.3226 18.8937 24.5383C19.0333 24.833 19.2113 25.0059 19.4855 25.1617C19.9253 25.2387 20.375 25.1975 20.8172 25.1617C20.885 24.8563 20.9033 24.5692 20.905 24.2558C20.9066 24.1242 20.9066 24.1242 20.9082 23.9898C20.908 23.7445 20.908 23.7445 20.7432 23.5253C20.531 23.4973 20.3404 23.4856 20.1282 23.4864C20.072 23.4842 20.0158 23.482 19.9579 23.4797C19.5483 23.4782 19.3823 23.5673 19.1156 23.9149ZM17.5065 25.5415C17.4627 25.5831 17.4188 25.6247 17.3736 25.6676C17.1429 25.9197 17.1785 26.1904 17.1782 26.5204C17.1773 26.5735 17.1764 26.6266 17.1755 26.6813C17.1747 26.9716 17.1832 27.0957 17.3401 27.3435C17.4816 27.377 17.4816 27.377 17.6432 27.369C17.7025 27.3686 17.7618 27.3682 17.8228 27.3678C17.8848 27.3662 17.9467 27.3646 18.0105 27.3629C18.0728 27.3625 18.135 27.3621 18.1991 27.3617C18.4961 27.3879 18.4961 27.3879 18.7457 27.2655C18.842 26.4297 18.842 26.4297 18.6266 25.6487C18.4116 25.4443 18.2565 25.3315 17.9663 25.292C17.7483 25.3225 17.6666 25.3856 17.5065 25.5415ZM39.6498 26.7834C39.5119 27.0796 39.4954 27.2508 39.5342 27.5772C39.6297 27.8623 39.7311 28.0191 39.9364 28.2298C40.3573 28.432 40.8124 28.4623 41.2525 28.2931C41.5672 28.09 41.719 27.8199 41.8143 27.4482C41.8381 27.1211 41.7226 26.8934 41.5316 26.6422C40.872 26.0892 40.1985 26.1165 39.6498 26.7834ZM22.128 28.8243C21.5559 29.5241 21.424 30.088 21.483 31.0057C21.5838 31.6203 21.9088 32.1505 22.3751 32.5334C23.0016 32.9588 23.6336 33.0683 24.3682 32.9538C24.8406 32.7785 25.2277 32.5002 25.5519 32.0966C25.6053 32.0356 25.6587 31.9745 25.7137 31.9116C26.0842 31.3465 26.0385 30.6501 25.9958 29.9928C25.8811 29.3511 25.4577 28.8035 24.96 28.4344C24.7294 28.3313 24.7294 28.3313 24.4838 28.259C24.403 28.2329 24.3223 28.2068 24.239 28.1799C23.488 28.0014 22.6755 28.2562 22.128 28.8243ZM33.0808 28.8903C32.888 29.137 32.7614 29.3836 32.654 29.6811C32.6235 29.755 32.593 29.8289 32.5615 29.9051C32.3922 30.6481 32.5558 31.2638 32.8759 31.9408C33.2502 32.474 33.6702 32.789 34.2816 32.9538C34.9839 33.0405 35.5414 32.9871 36.1311 32.5642C36.197 32.5179 36.197 32.5179 36.2643 32.4707C36.5588 32.239 36.713 31.9683 36.8709 31.6291C36.9136 31.5504 36.9563 31.4716 37.0003 31.3905C37.1983 30.8711 37.1729 30.2619 37.0165 29.7362C36.7389 29.0954 36.3655 28.6025 35.7395 28.3272C34.7794 27.9981 33.825 28.1079 33.0808 28.8903Z" fill="white"/>
</g>
<defs>
<clipPath id="clip0_9410_482">
<rect width="60" height="55" fill="white"/>
</clipPath>
</defs>
</svg>
