<svg width="207" height="109" viewBox="0 0 207 109" fill="none" xmlns="http://www.w3.org/2000/svg">
<path d="M48.3047 53.2169C51.3537 48.4035 55.9725 44.7918 61.379 42.9935L123.368 22.3737C157.431 11.0433 197.166 33.032 198.026 68.9191C198.038 69.4099 197.944 69.2076 197.72 68.1565C196.328 61.6042 128.643 77.4774 75.8628 90.9095C53.98 96.4785 36.2217 72.2922 48.3047 53.2169Z" fill="white"/>
<path d="M74.1774 59.9156L68.722 50.4209L70.5912 49.92L74.7073 57.6292L74.724 48.8126L76.6663 48.2922L81.02 55.9534L80.7407 47.2005L82.6246 46.6957L82.5744 57.6656L80.5007 58.2212L76.3239 51.0448L76.2365 59.3638L74.1774 59.9156ZM89.4295 56.0166C88.6993 56.2123 88.015 56.2287 87.3766 56.0658C86.7356 55.8932 86.1824 55.5615 85.7169 55.0705C85.2514 54.5796 84.9183 53.9593 84.7174 53.2097C84.5087 52.4308 84.477 51.7089 84.6223 51.0439C84.7773 50.3762 85.088 49.8026 85.5542 49.3229C86.0302 48.8405 86.6381 48.5002 87.378 48.302C88.0985 48.1089 88.7695 48.1013 89.391 48.2791C90.0126 48.4569 90.5424 48.7793 90.9806 49.2462C91.4161 49.7034 91.7239 50.2679 91.9039 50.9397C91.93 51.0371 91.9587 51.1441 91.99 51.261C92.0213 51.3778 92.0442 51.5021 92.0586 51.6339L86.0711 53.2382L85.7698 52.1138L90.0195 50.9751C89.8565 50.4448 89.5643 50.0744 89.1426 49.8639C88.7184 49.6437 88.2532 49.6014 87.7469 49.7371C87.3867 49.8336 87.0778 50.005 86.8204 50.2514C86.5629 50.4978 86.3909 50.8099 86.3044 51.1879C86.2152 51.5562 86.2372 51.9885 86.3702 52.4851L86.4837 52.9086C86.6063 53.3661 86.7947 53.7383 87.0489 54.0249C87.3128 54.309 87.6143 54.4995 87.9533 54.5965C88.2995 54.6811 88.6576 54.6739 89.0275 54.5748C89.4364 54.4652 89.7488 54.2876 89.9647 54.0419C90.1904 53.7936 90.3273 53.5065 90.3757 53.1805L92.1573 52.7031C92.1436 53.1972 92.0305 53.671 91.8181 54.1244C91.6031 54.5681 91.2955 54.9584 90.8953 55.2951C90.4925 55.6222 90.0039 55.8627 89.4295 56.0166ZM94.5785 54.4491L91.7611 43.9345L93.5135 43.465L96.3309 53.9796L94.5785 54.4491ZM101.824 52.6956C101.103 52.8886 100.413 52.9015 99.7522 52.7341C99.0989 52.5544 98.5346 52.2204 98.0594 51.7321C97.5913 51.2314 97.2582 50.6111 97.0599 49.8712C96.8538 49.1021 96.8296 48.3886 96.9872 47.7307C97.152 47.0605 97.4723 46.4842 97.9483 46.0019C98.434 45.5169 99.042 45.1766 99.7722 44.981C100.687 44.7358 101.522 44.7731 102.275 45.0929C103.026 45.403 103.601 45.9532 104.001 46.7435L102.161 47.2366C101.964 46.8927 101.682 46.6554 101.313 46.5247C100.954 46.3914 100.565 46.3808 100.146 46.493C99.7858 46.5895 99.4795 46.7707 99.2273 47.0365C98.9848 47.2998 98.8229 47.6301 98.7415 48.0276C98.6699 48.4224 98.7007 48.8681 98.8337 49.3646C98.9355 49.7443 99.0741 50.0671 99.2497 50.3331C99.4254 50.5991 99.6282 50.8108 99.8582 50.9683C100.095 51.1135 100.345 51.2083 100.607 51.2528C100.87 51.2973 101.137 51.283 101.41 51.21C101.692 51.1343 101.934 51.0227 102.134 50.875C102.342 50.7151 102.499 50.5217 102.605 50.295C102.721 50.0657 102.779 49.8153 102.779 49.5439L104.619 49.0509C104.663 49.9157 104.44 50.6798 103.95 51.3433C103.457 51.997 102.749 52.4478 101.824 52.6956ZM110.465 50.3803C109.764 50.5681 109.088 50.577 108.437 50.407C107.793 50.2247 107.234 49.8894 106.759 49.4011C106.291 48.9004 105.956 48.2752 105.755 47.5256C105.549 46.7565 105.53 46.0417 105.697 45.3812C105.862 44.7109 106.179 44.1408 106.648 43.6709C107.124 43.1885 107.712 42.8535 108.413 42.6656C109.114 42.4778 109.786 42.4751 110.43 42.6574C111.081 42.8274 111.639 43.1578 112.104 43.6487C112.58 44.1371 112.92 44.7658 113.126 45.5349C113.332 46.304 113.352 47.0188 113.184 47.6793C113.017 48.3398 112.695 48.9112 112.219 49.3936C111.751 49.8635 111.166 50.1924 110.465 50.3803ZM110.062 48.8761C110.412 48.7822 110.705 48.6098 110.94 48.3589C111.185 48.1054 111.349 47.7799 111.43 47.3825C111.511 46.985 111.483 46.5283 111.345 46.0123C111.206 45.4963 111.004 45.0914 110.737 44.7976C110.478 44.4915 110.179 44.2899 109.84 44.1929C109.51 44.0933 109.171 44.0905 108.82 44.1844C108.479 44.2757 108.186 44.4481 107.941 44.7016C107.696 44.9551 107.533 45.2806 107.452 45.678C107.368 46.0658 107.395 46.5176 107.533 47.0336C107.671 47.5496 107.875 47.9594 108.144 48.2629C108.413 48.5664 108.713 48.768 109.042 48.8676C109.381 48.9646 109.721 48.9674 110.062 48.8761ZM115.828 48.7554L113.856 41.3951L115.404 40.9804L115.82 41.9489C115.954 41.5163 116.184 41.1469 116.509 40.8408C116.841 40.5222 117.255 40.2964 117.752 40.1634C118.122 40.0643 118.466 40.0242 118.784 40.0433C119.112 40.0598 119.414 40.1354 119.69 40.2701C119.976 40.4022 120.231 40.5948 120.455 40.8477C120.618 40.3658 120.887 39.9493 121.263 39.5982C121.638 39.2472 122.084 39.0025 122.6 38.8643C123.213 38.6999 123.768 38.6869 124.264 38.8253C124.758 38.9539 125.182 39.2316 125.536 39.6584C125.888 40.0754 126.158 40.6344 126.346 41.3354L127.496 45.6289L125.758 46.0945L124.655 41.9763C124.488 41.3532 124.233 40.9101 123.892 40.6469C123.55 40.3837 123.131 40.3186 122.634 40.4517C122.293 40.543 122.014 40.7066 121.795 40.9425C121.586 41.1759 121.452 41.4727 121.392 41.8331C121.33 42.1838 121.36 42.5879 121.482 43.0455L122.531 46.9593L120.793 47.4249L119.69 43.3067C119.523 42.6836 119.268 42.2405 118.926 41.9773C118.585 41.7141 118.161 41.6503 117.654 41.786C117.333 41.8721 117.063 42.0331 116.845 42.269C116.636 42.5024 116.501 42.7992 116.442 43.1597C116.379 43.5103 116.409 43.9145 116.532 44.372L117.58 48.2858L115.828 48.7554ZM132.841 44.3845C132.111 44.5802 131.427 44.5966 130.788 44.4337C130.147 44.2611 129.594 43.9294 129.128 43.4385C128.663 42.9475 128.33 42.3272 128.129 41.5776C127.92 40.7987 127.888 40.0768 128.034 39.4118C128.189 38.7442 128.499 38.1705 128.966 37.6908C129.442 37.2085 130.05 36.8682 130.79 36.6699C131.51 36.4769 132.181 36.4693 132.803 36.6471C133.424 36.8249 133.954 37.1472 134.392 37.6142C134.828 38.0714 135.135 38.6359 135.315 39.3076C135.341 39.405 135.37 39.5121 135.401 39.6289C135.433 39.7457 135.456 39.87 135.47 40.0018L129.483 41.6062L129.181 40.4817L133.431 39.343C133.268 38.8127 132.976 38.4424 132.554 38.2319C132.13 38.0116 131.665 37.9693 131.158 38.105C130.798 38.2015 130.489 38.3729 130.232 38.6193C129.974 38.8657 129.802 39.1779 129.716 39.5558C129.627 39.9241 129.649 40.3565 129.782 40.853L129.895 41.2765C130.018 41.7341 130.206 42.1062 130.46 42.3929C130.724 42.6769 131.026 42.8674 131.365 42.9644C131.711 43.0491 132.069 43.0418 132.439 42.9427C132.848 42.8331 133.16 42.6555 133.376 42.4098C133.602 42.1615 133.739 41.8744 133.787 41.5484L135.569 41.071C135.555 41.5651 135.442 42.0389 135.23 42.4923C135.015 42.936 134.707 43.3263 134.307 43.6631C133.904 43.9901 133.415 44.2306 132.841 44.3845ZM144.753 41.0048C144.257 41.1378 143.803 41.176 143.391 41.1194C142.989 41.0601 142.638 40.8778 142.337 40.5723C142.036 40.2669 141.803 39.8075 141.639 39.1941L140.723 35.7769L139.467 36.1134L139.072 34.6385L140.328 34.3019L140.012 32.3049L141.56 31.8901L142.08 33.8324L144.081 33.2963L144.476 34.7713L142.476 35.3073L143.391 38.7246C143.49 39.0945 143.637 39.3317 143.832 39.436C144.034 39.5279 144.325 39.523 144.705 39.4213L145.61 39.1787L146.009 40.6682L144.753 41.0048ZM150.995 39.5201C150.294 39.7079 149.618 39.7168 148.968 39.5469C148.324 39.3645 147.765 39.0292 147.289 38.5409C146.821 38.0402 146.487 37.4151 146.286 36.6654C146.08 35.8963 146.061 35.1815 146.228 34.521C146.393 33.8508 146.71 33.2807 147.178 32.8107C147.654 32.3284 148.243 31.9933 148.944 31.8055C149.645 31.6177 150.317 31.6149 150.961 31.7972C151.612 31.9672 152.17 32.2976 152.635 32.7886C153.11 33.2769 153.451 33.9056 153.657 34.6747C153.863 35.4439 153.882 36.1587 153.715 36.8192C153.548 37.4797 153.226 38.0511 152.75 38.5334C152.281 39.0034 151.696 39.3323 150.995 39.5201ZM150.592 38.0159C150.943 37.922 151.236 37.7496 151.471 37.4987C151.716 37.2452 151.879 36.9197 151.961 36.5223C152.042 36.1248 152.014 35.6681 151.875 35.1521C151.737 34.6361 151.535 34.2312 151.268 33.9375C151.009 33.6313 150.71 33.4298 150.37 33.3328C150.041 33.2332 149.701 33.2303 149.351 33.3243C149.01 33.4156 148.717 33.588 148.472 33.8415C148.227 34.095 148.064 34.4204 147.982 34.8179C147.898 35.2056 147.926 35.6574 148.064 36.1734C148.202 36.6894 148.406 37.0992 148.675 37.4027C148.944 37.7062 149.243 37.9078 149.573 38.0074C149.912 38.1044 150.252 38.1072 150.592 38.0159ZM92.4275 75.9188C91.4637 76.1771 90.558 76.185 89.7104 75.9425C88.8726 75.6975 88.1497 75.239 87.5418 74.5671C86.9314 73.8854 86.4853 73.0189 86.2035 71.9674C85.9244 70.9257 85.8823 69.9509 86.0773 69.043C86.2697 68.1254 86.6856 67.3409 87.325 66.6896C87.9715 66.0259 88.8205 65.5532 89.8719 65.2715C91.0597 64.9532 92.12 64.9769 93.0527 65.3426C93.9926 65.696 94.7151 66.3477 95.22 67.2976L93.2485 67.8258C92.9668 67.3587 92.574 67.0413 92.07 66.8738C91.5659 66.7062 90.9732 66.7138 90.2917 66.8964C89.6004 67.0816 89.047 67.3916 88.6313 67.8265C88.2228 68.249 87.9628 68.7778 87.8512 69.4129C87.7468 70.0357 87.7976 70.7316 88.0037 71.5007C88.2098 72.2698 88.5137 72.898 88.9156 73.3851C89.3271 73.8696 89.8106 74.194 90.3659 74.3582C90.9186 74.5127 91.5162 74.5039 92.1588 74.3317C93.1129 74.0761 93.7616 73.6153 94.1049 72.9494C94.4482 72.2835 94.5489 71.5104 94.4069 70.6302L91.7637 71.3385L91.4076 70.0095L95.8179 68.8278L97.3166 74.421L95.7102 74.8514L95.1885 73.4886C95.0533 73.8796 94.8722 74.2359 94.6454 74.5576C94.4159 74.8695 94.1185 75.1422 93.7533 75.3757C93.3952 75.5969 92.9532 75.7779 92.4275 75.9188ZM101.649 73.4479C101.045 73.6096 100.517 73.6418 100.063 73.5443C99.6088 73.4468 99.2388 73.2537 98.9528 72.9652C98.6668 72.6766 98.4703 72.3327 98.3633 71.9335C98.2381 71.4662 98.2467 71.0309 98.3891 70.6275C98.5411 70.2216 98.8261 69.8635 99.2438 69.5533C99.659 69.2334 100.207 68.9821 100.889 68.7995L102.743 68.3025C102.639 67.9131 102.499 67.6062 102.325 67.3817C102.147 67.1476 101.929 66.9972 101.671 66.9306C101.414 66.8641 101.109 66.8777 100.759 66.9716C100.36 67.0786 100.044 67.2624 99.8111 67.523C99.5757 67.7739 99.4735 68.0935 99.5045 68.4817L97.7813 68.9434C97.6988 68.4021 97.7541 67.9073 97.947 67.459C98.1373 67.0011 98.4436 66.606 98.8659 66.2737C99.2953 65.9291 99.7972 65.6798 100.372 65.5259C101.063 65.3407 101.684 65.3045 102.236 65.4175C102.786 65.5207 103.247 65.7623 103.62 66.1424C104.001 66.51 104.274 67.0054 104.441 67.6285L105.662 72.1848L104.172 72.584L103.68 71.448C103.635 71.6688 103.557 71.8829 103.445 72.0901C103.344 72.2947 103.212 72.4864 103.052 72.6652C102.888 72.8342 102.689 72.9867 102.454 73.1226C102.229 73.256 101.961 73.3644 101.649 73.4479ZM101.672 71.9549C101.954 71.8793 102.189 71.7641 102.377 71.6093C102.573 71.4422 102.723 71.2453 102.829 71.0186C102.943 70.7795 103.012 70.5314 103.037 70.2743C103.062 70.0172 103.054 69.7532 103.013 69.4825L103.005 69.4533L101.384 69.8877C101.043 69.979 100.772 70.0985 100.572 70.2461C100.369 70.384 100.24 70.5438 100.184 70.7257C100.128 70.9075 100.128 71.1007 100.183 71.3052C100.238 71.5096 100.333 71.6718 100.47 71.7918C100.606 71.9117 100.777 71.9858 100.983 72.0142C101.189 72.0425 101.419 72.0227 101.672 71.9549ZM107.534 71.6831L105.562 64.3229L107.11 63.9081L107.526 64.8766C107.661 64.4441 107.891 64.0747 108.215 63.7685C108.547 63.45 108.962 63.2242 109.458 63.0911C109.828 62.992 110.172 62.952 110.49 62.9711C110.818 62.9876 111.12 63.0632 111.396 63.1979C111.682 63.33 111.937 63.5225 112.162 63.7755C112.325 63.2935 112.594 62.877 112.969 62.526C113.345 62.1749 113.791 61.9303 114.307 61.792C114.92 61.6277 115.475 61.6147 115.971 61.753C116.465 61.8816 116.889 62.1593 117.243 62.5861C117.595 63.0032 117.864 63.5622 118.052 64.2631L119.203 68.5566L117.465 69.0223L116.361 64.904C116.194 64.2809 115.94 63.8378 115.598 63.5746C115.256 63.3114 114.837 63.2464 114.341 63.3794C114 63.4707 113.72 63.6343 113.502 63.8703C113.293 64.1036 113.159 64.4005 113.099 64.7609C113.036 65.1116 113.066 65.5157 113.189 65.9733L114.237 69.887L112.5 70.3527L111.396 66.2345C111.229 65.6114 110.975 65.1682 110.633 64.905C110.291 64.6419 109.867 64.5781 109.361 64.7137C109.04 64.7998 108.77 64.9608 108.551 65.1968C108.342 65.4301 108.208 65.727 108.148 66.0874C108.086 66.4381 108.116 66.8422 108.238 67.2998L109.287 71.2135L107.534 71.6831ZM124.548 67.3123C123.817 67.5079 123.133 67.5243 122.495 67.3615C121.854 67.1889 121.3 66.8571 120.835 66.3662C120.369 65.8753 120.036 65.255 119.835 64.5053C119.627 63.7265 119.595 63.0045 119.74 62.3395C119.895 61.6719 120.206 61.0982 120.672 60.6185C121.148 60.1362 121.756 59.7959 122.496 59.5977C123.217 59.4046 123.888 59.397 124.509 59.5748C125.131 59.7526 125.66 60.075 126.099 60.5419C126.534 60.9991 126.842 61.5636 127.022 62.2354C127.048 62.3327 127.077 62.4398 127.108 62.5566C127.139 62.6735 127.162 62.7978 127.177 62.9296L121.189 64.5339L120.888 63.4094L125.138 62.2707C124.975 61.7405 124.682 61.3701 124.261 61.1596C123.836 60.9394 123.371 60.8971 122.865 61.0327C122.505 61.1292 122.196 61.3007 121.938 61.5471C121.681 61.7935 121.509 62.1056 121.422 62.4836C121.333 62.8518 121.355 63.2842 121.488 63.7807L121.602 64.2042C121.724 64.6618 121.913 65.0339 122.167 65.3206C122.431 65.6047 122.732 65.7952 123.071 65.8922C123.418 65.9768 123.776 65.9696 124.146 65.8704C124.554 65.7609 124.867 65.5832 125.083 65.3376C125.308 65.0893 125.445 64.8021 125.494 64.4762L127.275 63.9988C127.262 64.4929 127.149 64.9666 126.936 65.4201C126.721 65.8638 126.414 66.254 126.013 66.5908C125.611 66.9179 125.122 67.1584 124.548 67.3123ZM129.755 65.7291L127.016 55.5066L128.768 55.0371L131.507 65.2596L129.755 65.7291ZM133.563 64.7088L130.824 54.4863L132.576 54.0168L139.477 60.0875L137.497 52.6981L139.25 52.2285L141.989 62.451L140.237 62.9206L133.339 56.8645L135.315 64.2393L133.563 64.7088ZM144.045 61.9002L141.306 51.6777L143.058 51.2081L149.959 57.2788L147.98 49.8894L149.732 49.4198L152.471 59.6424L150.719 60.1119L143.821 54.0558L145.797 61.4306L144.045 61.9002Z" fill="#25313C"/>
</svg>
