<svg width="270" height="96" viewBox="0 0 270 96" fill="none" xmlns="http://www.w3.org/2000/svg">
<g clip-path="url(#clip0_9474_114)">
<path d="M206.55 25.6901C217.306 33.7075 223.679 47.9052 230.435 59.242C232.945 63.4435 235.489 67.6109 238.106 71.7464C239.291 73.6523 239.291 73.6523 240.5 75.5968C242.824 78.6294 242.824 78.6294 246.343 79.8538C249.872 80.0901 249.872 80.0901 252.614 77.7395C256.058 73.1582 255.939 69.0966 255.925 63.5809C255.954 62.0264 255.954 62.0264 255.983 60.4405C256.04 57.1385 256.06 53.8375 256.078 50.5351C256.117 47.2235 256.164 43.9122 256.216 40.6008C256.247 38.5424 256.268 36.4838 256.28 34.4251C256.352 27.3384 256.352 27.3384 257.85 24.338C261.693 22.9855 263.709 22.5946 267.482 24.2518C271.408 28.6026 270.771 33.408 270.717 38.9841C270.725 40.7473 270.725 40.7473 270.733 42.5461C270.737 45.0341 270.727 47.5221 270.704 50.0099C270.675 53.8033 270.704 57.5931 270.738 61.3864C270.735 63.8063 270.728 66.2262 270.717 68.646C270.728 69.7745 270.739 70.9029 270.75 72.0656C270.635 79.3345 269.377 83.4527 264.6 89.2394C258.975 94.4504 255.505 95.7057 248.063 96.4225C240.584 95.7983 234.746 93.4118 229.663 87.7816C225.861 82.5351 222.451 77.0836 219.038 71.5774C213.395 62.5306 207.642 53.6062 201.593 44.8256C199.8 41.9154 199.8 41.9154 199.8 39.2112C195.166 39.5681 195.166 39.5681 190.35 40.5633C186.969 45.6427 187.25 49.6856 187.233 55.5686C187.199 57.7614 187.165 59.9542 187.131 62.1469C187.092 65.6039 187.059 69.0608 187.034 72.5179C187.005 75.8545 186.952 79.1901 186.896 82.5263C186.896 83.5644 186.896 84.6024 186.895 85.6719C186.841 88.5848 186.841 88.5848 186.3 93.2957C182.25 95.9999 182.25 95.9999 178.116 95.7464C174.15 94.6478 174.15 94.6478 171.45 90.5915C171.17 87.1988 171.04 83.9602 171.044 80.5668C171.038 79.581 171.032 78.5952 171.026 77.5796C171.019 75.4906 171.018 73.4016 171.024 71.3126C171.028 68.152 170.997 64.9931 170.962 61.8327C170.859 38.154 170.859 38.154 177.221 30.335C185.723 22.4093 196.136 21.2837 206.55 25.6901Z" fill="white"/>
<path d="M-4.6432e-05 0C2.22745 0 4.45495 0 6.74995 0C7.19545 11.6011 7.64095 23.2023 8.09995 35.1549C11.2185 32.4777 14.337 29.8006 17.55 27.0423C26.3658 22.568 36.651 21.9258 46.1531 24.4225C56.1893 27.9383 63.7518 33.8409 68.85 43.2676C72.7315 51.626 72.9186 61.0889 70.5744 69.9349C66.4202 81.1029 60.6524 87.7147 50.1978 93.3222C40.8206 97.5393 30.7293 97.2645 21.1781 93.7183C12.2476 89.7213 6.21928 82.7508 1.34995 74.3662C0.0485774 70.1772 -0.164118 66.3885 -0.153306 62.0136C-0.153204 60.6335 -0.153102 59.2533 -0.152997 57.8313C-0.146029 56.3508 -0.139061 54.8704 -0.131882 53.3451C-0.129972 51.8221 -0.128062 50.2992 -0.126094 48.7301C-0.118539 43.867 -0.101594 39.0039 -0.0844214 34.1408C-0.0776506 30.8433 -0.0714908 27.5458 -0.0659644 24.2482C-0.0510814 16.1655 -0.0284895 8.08274 -4.6432e-05 0ZM11.3906 43.5211C7.10537 50.8613 5.5922 58.2003 7.40386 66.5704C10.7918 76.5993 16.3642 81.8851 25.65 86.5352C32.6958 89.1815 39.7583 88.4975 46.6593 85.7746C54.3792 82.0406 58.9999 76.7586 62.6062 69.0423C64.5281 59.6101 63.9708 53.1442 59.4 44.6197C54.4254 37.1462 49.0948 33.6927 40.5 31.0986C28.816 29.4268 18.4566 33.9492 11.3906 43.5211Z" fill="white"/>
<path d="M132.3 29.7465C140.159 36.5447 144.967 43.8795 147.15 54.0845C147.403 58.6479 147.403 58.6479 147.15 62.1972C145.8 63.5493 145.8 63.5493 141.805 63.7028C140.059 63.6957 138.313 63.6886 136.513 63.6813C135.123 63.6785 135.123 63.6785 133.704 63.6755C130.733 63.6679 127.762 63.651 124.791 63.6338C122.781 63.627 120.77 63.6208 118.76 63.6153C113.824 63.6004 108.887 63.577 103.95 63.5493C103.059 61.7645 102.168 59.9797 101.25 58.1408C103.95 55.4366 103.95 55.4366 107.355 55.1296C108.754 55.1438 110.154 55.1579 111.596 55.1725C113.11 55.1812 114.624 55.19 116.184 55.1989C117.771 55.2216 119.359 55.2443 120.994 55.2676C122.591 55.2798 124.189 55.292 125.835 55.3046C129.79 55.3365 133.745 55.3811 137.7 55.4366C137.102 53.7095 136.491 51.9867 135.875 50.2658C135.537 49.306 135.198 48.3462 134.849 47.3573C132.062 40.9944 126.332 36.6173 120.15 33.8028C109.231 31.026 100.114 33.869 90.45 39.2113C88.8616 41.4831 88.8616 41.4831 87.75 44.6197C86.9982 46.2372 86.2464 47.8546 85.4718 49.5211C82.6864 57.218 83.3331 64.375 86.1837 71.9841C90.4284 80.0178 96.8393 83.7149 105.3 86.5352C113.586 88.2719 121.263 85.5594 128.25 81.1268C130.3 79.0167 130.3 79.0167 131.962 76.7324C135 73.0141 135 73.0141 138.797 72.507C139.771 72.6744 140.746 72.8417 141.75 73.0141C142.461 77.8552 141.826 79.6565 139.134 83.831C132.78 90.8681 123.816 95.3177 114.444 96.3222C103.822 96.6514 95.6352 93.823 86.6531 88.2253C78.8735 80.211 74.3392 71.1783 74.2078 59.9419C74.8772 47.7902 78.0676 40.2263 86.9906 31.9437C99.9651 20.5986 118.111 20.272 132.3 29.7465Z" fill="white"/>
<path d="M163.012 23.9155C166.05 25.6901 166.05 25.6901 167.4 28.3944C167.548 30.3673 167.615 32.3467 167.639 34.325C167.656 35.5526 167.674 36.7802 167.691 38.045C167.706 40.0393 167.706 40.0393 167.722 42.0739C167.733 43.4378 167.743 44.8017 167.755 46.2069C167.773 49.0962 167.788 51.9855 167.798 54.8748C167.822 59.2968 167.881 63.7174 167.941 68.1391C167.954 70.9436 167.966 73.7482 167.975 76.5528C167.998 77.8769 168.022 79.201 168.046 80.5652C168.017 89.6914 168.017 89.6914 164.933 94.189C162 96 162 96 157.697 95.7465C153.9 94.6479 153.9 94.6479 152.55 93.2958C152.389 91.2432 152.32 89.1834 152.29 87.1248C152.268 85.8115 152.246 84.4983 152.224 83.1452C152.164 77.1335 152.108 71.122 152.077 65.11C152.055 61.9334 152.018 58.7568 151.967 55.5805C151.893 51.0146 151.863 46.4503 151.843 41.8838C151.813 40.4598 151.782 39.0357 151.751 37.5685C151.761 33.9336 151.823 30.6032 152.55 27.0422C156.447 23.3567 157.797 22.6095 163.012 23.9155Z" fill="white"/>
</g>
<defs>
<clipPath id="clip0_9474_114">
<rect width="270" height="96" fill="white"/>
</clipPath>
</defs>
</svg>
