<svg width="300" height="300" viewBox="0 0 300 300" fill="none" xmlns="http://www.w3.org/2000/svg">
<path d="M158.25 197.25H141C122.25 197.25 106.5 183.75 103.5 165.75L97.5 132.75C97.5 130.5 97.5 129 99 127.5C100.5 126 102 125.25 104.25 125.25H195C197.25 125.25 198.75 126 200.25 127.5C201.75 129 201.75 131.25 201.75 132.75L195.75 165.75C192.75 184.5 177 197.25 158.25 197.25ZM105.75 133.5L111 165C113.25 180 126 190.5 141 190.5H158.25C173.25 190.5 186 180 188.25 165L193.5 133.5H105.75Z" fill="white"/>
<path d="M194.25 138C198 134.25 206.25 131.25 213 138C217.5 142.5 218.25 151.5 213.75 158.25C210.75 163.5 205.5 166.5 199.5 166.5C197.25 166.5 195 165.75 192 165L194.25 157.5C201.75 159.75 205.5 156.75 207 153.75C209.25 150 209.25 144.75 207 142.5C203.25 138.75 200.25 141.75 198.75 142.5L194.25 138Z" fill="white"/>
<path d="M133.5 120.75C132 120.75 131.25 120 130.5 119.25C130.5 118.5 128.25 115.5 128.25 111C128.25 106.5 130.5 102.75 130.5 102.75C130.5 102.75 132 100.5 132 98.2501C132 96.0001 130.5 93.7501 130.5 93.7501C129.75 92.2501 129.75 90.0001 132 88.5001C133.5 87.7501 135.75 87.7501 137.25 90.0001C137.25 90.7501 139.5 93.7501 139.5 98.2501C139.5 102.75 137.25 106.5 137.25 106.5C137.25 106.5 135.75 108.75 135.75 111C135.75 113.25 137.25 115.5 137.25 115.5C138 117 138 119.25 135.75 120.75C134.25 120.75 134.25 120.75 133.5 120.75Z" fill="white"/>
<path d="M150 120.75C148.5 120.75 147.75 120 147 119.25C147 119.25 144.75 115.5 144.75 111C144.75 106.5 147 102.75 147 102.75C147 102.75 148.5 100.5 148.5 98.2501C148.5 96.0001 147 93.7501 147 93.7501C146.25 92.2501 146.25 90.0001 148.5 88.5001C150 87.7501 152.25 87.7501 153.75 90.0001C153.75 90.7501 156 93.7501 156 98.2501C156 102.75 153.75 106.5 153.75 106.5C153.75 106.5 152.25 108.75 152.25 111C152.25 113.25 153.75 115.5 153.75 115.5C154.5 117 154.5 119.25 152.25 120.75C151.5 120.75 150.75 120.75 150 120.75Z" fill="white"/>
<path d="M166.5 120.75C165 120.75 164.25 120 163.5 119.25C163.5 119.25 161.25 115.5 161.25 111C161.25 106.5 163.5 102.75 163.5 102.75C163.5 102.75 165 100.5 165 98.2501C165 96.0001 163.5 93.7501 163.5 93.7501C162.75 92.2501 162.75 90.0001 165 88.5001C167.25 87.0001 168.75 87.7501 170.25 90.0001C170.25 90.7501 172.5 93.7501 172.5 98.2501C172.5 102.75 170.25 106.5 170.25 106.5C170.25 106.5 168.75 108.75 168.75 111C168.75 113.25 170.25 115.5 170.25 115.5C171 117 171 119.25 168.75 120.75C168 120.75 167.25 120.75 166.5 120.75Z" fill="white"/>
<path d="M198.75 212.25H101.25C99 212.25 97.5 210.75 97.5 208.5C97.5 206.25 99 204.75 101.25 204.75H198.75C201 204.75 202.5 206.25 202.5 208.5C202.5 210.75 201 212.25 198.75 212.25Z" fill="white"/>
</svg>
