<svg width="205" height="205" viewBox="0 0 205 205" fill="none" xmlns="http://www.w3.org/2000/svg">
<path d="M124.304 181.51C134.974 179.796 153.709 181.334 161.29 158.895M160.465 78.8354C156.735 69.7466 149.703 66.0314 136.497 65.2712C112.657 63.8994 58.3005 71.5493 38.4535 77.3577C24.4845 81.4483 24.4717 98.2971 24.4717 98.2971" stroke="white" stroke-width="4.27083" stroke-linecap="round" stroke-linejoin="round"/>
<path d="M42.1084 99.2666L44.6624 148.672" stroke="white" stroke-width="4.27083" stroke-linecap="round" stroke-linejoin="round"/>
<path d="M58.4218 147.933L55.8721 98.5282L71.7523 97.6741C76.1363 97.5115 80.4082 99.0806 83.6446 102.042C86.881 105.004 88.822 109.12 89.048 113.501C89.274 117.883 87.7669 122.177 84.8523 125.456C81.9378 128.734 77.8501 130.735 73.4726 131.024L57.5928 131.878" stroke="white" stroke-width="4.27083" stroke-linecap="round" stroke-linejoin="round"/>
<path d="M102.009 96.0498L134.377 94.312" stroke="white" stroke-width="4.27083" stroke-linecap="round" stroke-linejoin="round"/>
<path d="M121.049 144.573L118.495 95.1667" stroke="white" stroke-width="4.27083" stroke-linecap="round" stroke-linejoin="round"/>
<path d="M180.528 91.8445L167.199 142.104L148.155 93.5827" stroke="white" stroke-width="4.27083" stroke-linecap="round" stroke-linejoin="round"/>
<path d="M86.8687 68.5072L66.8718 34.0625" stroke="white" stroke-width="4.27083" stroke-linecap="round" stroke-linejoin="round"/>
<path d="M94.428 67.3597L102.196 35.709" stroke="white" stroke-width="4.27083" stroke-linecap="round" stroke-linejoin="round"/>
<path d="M64.1255 34.7782C67.2428 34.7782 69.7699 32.2511 69.7699 29.1338C69.7699 26.0166 67.2428 23.4895 64.1255 23.4895C61.0083 23.4895 58.4812 26.0166 58.4812 29.1338C58.4812 32.2511 61.0083 34.7782 64.1255 34.7782Z" stroke="white" stroke-width="4.27083" stroke-linecap="round" stroke-linejoin="round"/>
<path d="M103.963 35.9915C107.08 35.9915 109.607 33.4645 109.607 30.3472C109.607 27.2299 107.08 24.7029 103.963 24.7029C100.846 24.7029 98.3186 27.2299 98.3186 30.3472C98.3186 33.4645 100.846 35.9915 103.963 35.9915Z" stroke="white" stroke-width="4.27083" stroke-linecap="round" stroke-linejoin="round"/>
</svg>
