<svg width="192" height="192" viewBox="0 0 192 192" fill="none" xmlns="http://www.w3.org/2000/svg">
<path d="M19.5719 145.488C5.32792 141.402 2.96992 132.984 9.43192 128.094C14.0879 125.034 19.4399 122.37 25.1039 120.366L25.6259 120.204L67.7279 105.108V122.448L37.5479 133.482C32.2619 135.516 31.3619 138.222 35.7539 139.674C37.9439 140.232 40.4519 140.556 43.0379 140.556C46.7279 140.556 50.2619 139.902 53.5319 138.708L53.3219 138.774L67.8539 133.482V149.034C66.9539 149.256 65.9339 149.364 64.9319 149.58C60.2819 150.396 54.9299 150.864 49.4699 150.864C38.8019 150.864 28.5539 149.076 19.0019 145.788L19.6619 145.986L19.5719 145.488ZM108.294 147.264L155.502 130.206C160.86 128.274 161.694 125.52 157.344 124.074C155.166 123.54 152.67 123.234 150.096 123.234C146.364 123.234 142.776 123.882 139.452 125.064L139.674 124.998L108.144 136.242V118.344L109.944 117.708C116.244 115.614 123.648 113.988 131.286 113.142L131.784 113.094C134.592 112.794 137.844 112.626 141.138 112.626C152.4 112.626 163.2 114.612 173.196 118.26L172.548 118.05C186.402 122.556 187.842 129.084 184.362 133.584C181.008 136.926 176.952 139.572 172.434 141.276L172.2 141.354L108.138 164.652V147.438L108.294 147.264ZM73.3859 25.488V157.05L102.738 166.506V56.166C102.738 50.994 105.018 47.538 108.69 48.738C113.46 50.088 114.39 54.84 114.39 60.024V104.076C132.69 113.022 147.096 104.058 147.096 80.442C147.096 56.172 138.654 45.39 113.82 36.75C103.11 32.862 89.5799 28.986 75.7379 25.92L73.4039 25.488H73.3859Z" fill="white"/>
</svg>
